# xmcd
#
# Track frame offsets: 
#        150
#        2221
#        19480
#        46541
#        73822
#        92183
#        102906
#        131132
#        151001
#        165670
#        187185
#        223411
#        260379
#
# Disc length: 3777 seconds
#
# Revision: 1
# Processed by: cddbd v1.5.2PL0 Copyright (c) Steve Scherf et al.
# Submitted via: ExactAudioCopy v1.0b3
#
DISCID=b80ebf0d
DTITLE=Douglas Adams - Per Anhalter durch die Galaxis - CD 7
DYEAR=1991
DGENRE=Hˆrbuch
TTITLE0=Ansage
TTITLE1=Das Sofa auf Lord's Cricket Ground 1
TTITLE2=Das Sofa auf Lord's Cricket Ground 2
TTITLE3=Das Sofa auf Lord's Cricket Ground 3
TTITLE4=Das Sofa auf Lord's Cricket Ground 4
TTITLE5=Das Sofa auf Lord's Cricket Ground 5
TTITLE6=Der groﬂe Knall im All 1
TTITLE7=Der groﬂe Knall im All 2
TTITLE8=Der groﬂe Knall im All 3
TTITLE9=Der groﬂe Knall im All 4
TTITLE10=Im Zentrum der Informations-Illusion 1
TTITLE11=Im Zentrum der Informations-Illusion 2
TTITLE12=Im Zentrum der Informations-Illusion 3
EXTD=
EXTT0=
EXTT1=
EXTT2=
EXTT3=
EXTT4=
EXTT5=
EXTT6=
EXTT7=
EXTT8=
EXTT9=
EXTT10=
EXTT11=
EXTT12=
PLAYORDER=
